<svg width="40" height="40" viewBox="0 0 40 40" fill="none" xmlns="http://www.w3.org/2000/svg">
<rect width="40" height="40" rx="20" fill="#E1E3E6"/>
<path d="M16.5099 10H23.49C23.7225 9.99995 23.9007 9.99991 24.0565 10.0151C25.1643 10.1235 26.0711 10.7896 26.4556 11.6868H13.5443C13.9288 10.7896 14.8355 10.1235 15.9434 10.0151C16.0992 9.99991 16.2774 9.99995 16.5099 10Z" fill="#909499"/>
<path d="M14.3105 12.7231C12.9199 12.7231 11.7796 13.5629 11.3991 14.6769C11.3912 14.7001 11.3836 14.7235 11.3763 14.7469C11.7744 14.6264 12.1888 14.5476 12.6083 14.4938C13.6886 14.3553 15.054 14.3554 16.64 14.3555H23.5321C25.1181 14.3554 26.4835 14.3553 27.5639 14.4938C27.9833 14.5476 28.3977 14.6264 28.7958 14.7469C28.7886 14.7235 28.781 14.7001 28.773 14.6769C28.3925 13.5629 27.2522 12.7231 25.8616 12.7231H14.3105Z" fill="#909499"/>
<path fill-rule="evenodd" clip-rule="evenodd" d="M23.3276 15.542H16.6724C13.2976 15.542 11.6102 15.542 10.6623 16.5289C9.71447 17.5157 9.93748 19.0403 10.3835 22.0895L10.8065 24.9811C11.1563 27.3724 11.3311 28.568 12.2283 29.284C13.1255 30 14.4488 30 17.0953 30H22.9046C25.5512 30 26.8745 30 27.7717 29.284C28.6689 28.568 28.8437 27.3724 29.1935 24.9811L29.6165 22.0895C30.0625 19.0404 30.2855 17.5157 29.3377 16.5289C28.3898 15.542 26.7024 15.542 23.3276 15.542ZM22.5812 23.7942C23.1396 23.4481 23.1396 22.5519 22.5812 22.2058L19.2096 20.1156C18.6669 19.7792 18 20.2171 18 20.9099V25.0901C18 25.7829 18.6669 26.2208 19.2096 25.8844L22.5812 23.7942Z" fill="#909499"/>
</svg>
