<svg width="18" height="18" viewBox="0 0 18 18" fill="none" xmlns="http://www.w3.org/2000/svg">
<path d="M17.3334 6.08334C17.3334 3.0918 14.9083 0.666672 11.9167 0.666672C10.181 0.666672 8.63598 1.48525 7.64467 2.75601C11.8727 2.91947 15.2501 6.39865 15.2501 10.6667C15.2501 10.7586 15.2485 10.8502 15.2454 10.9413L15.5223 11.0154C16.3276 11.2309 17.0643 10.4942 16.8488 9.68888L16.7427 9.29218C16.6569 8.97173 16.7085 8.63318 16.8463 8.33144C17.1591 7.64666 17.3334 6.88535 17.3334 6.08334Z" fill="#19191A"/>
<path fill-rule="evenodd" clip-rule="evenodd" d="M14.0001 10.6667C14.0001 14.3486 11.0153 17.3333 7.33341 17.3333C6.30383 17.3333 5.32875 17.0999 4.45821 16.6832C4.159 16.5399 3.82003 16.4896 3.49957 16.5754L2.47787 16.8487C1.67259 17.0642 0.935877 16.3275 1.15134 15.5222L1.42471 14.5005C1.51045 14.1801 1.46016 13.8411 1.31691 13.5419C0.900144 12.6713 0.666748 11.6963 0.666748 10.6667C0.666748 6.98477 3.65152 4.00001 7.33341 4.00001C11.0153 4.00001 14.0001 6.98477 14.0001 10.6667ZM4.41675 11.5C4.87699 11.5 5.25008 11.1269 5.25008 10.6667C5.25008 10.2064 4.87699 9.83334 4.41675 9.83334C3.95651 9.83334 3.58341 10.2064 3.58341 10.6667C3.58341 11.1269 3.95651 11.5 4.41675 11.5ZM7.33341 11.5C7.79365 11.5 8.16675 11.1269 8.16675 10.6667C8.16675 10.2064 7.79365 9.83334 7.33341 9.83334C6.87318 9.83334 6.50008 10.2064 6.50008 10.6667C6.50008 11.1269 6.87318 11.5 7.33341 11.5ZM10.2501 11.5C10.7103 11.5 11.0834 11.1269 11.0834 10.6667C11.0834 10.2064 10.7103 9.83334 10.2501 9.83334C9.78984 9.83334 9.41675 10.2064 9.41675 10.6667C9.41675 11.1269 9.78984 11.5 10.2501 11.5Z" fill="#19191A"/>
</svg>
