<svg width="40" height="40" viewBox="0 0 40 40" fill="none" xmlns="http://www.w3.org/2000/svg">
<rect width="40" height="40" rx="20" fill="#E1E3E6"/>
<path d="M21.5 19.25H18.75V16.2C18.75 16.103 18.7501 16.0453 18.7513 16.0018C18.752 15.9742 18.7531 15.9622 18.7533 15.9593C18.7708 15.8536 18.8536 15.7708 18.9593 15.7533C18.9622 15.7531 18.9742 15.752 19.0018 15.7513C19.0453 15.7501 19.103 15.75 19.2 15.75H21.5C22.4665 15.75 23.25 16.5335 23.25 17.5C23.25 18.4665 22.4665 19.25 21.5 19.25Z" fill="#909499"/>
<path fill-rule="evenodd" clip-rule="evenodd" d="M30 20C30 25.5228 25.5228 30 20 30C14.4772 30 10 25.5228 10 20C10 14.4772 14.4772 10 20 10C25.5228 10 30 14.4772 30 20ZM16.25 22C16.25 21.5858 16.5858 21.25 17 21.25H17.25V20.75H17C16.5858 20.75 16.25 20.4142 16.25 20C16.25 19.5858 16.5858 19.25 17 19.25H17.25L17.25 16.1615C17.2498 16.016 17.2496 15.8647 17.2715 15.7262C17.3901 14.9774 17.9774 14.3901 18.7262 14.2715C18.8647 14.2496 19.016 14.2498 19.1615 14.25L21.5 14.25C23.2949 14.25 24.75 15.7051 24.75 17.5C24.75 19.2949 23.2949 20.75 21.5 20.75H18.75V21.25H20C20.4142 21.25 20.75 21.5858 20.75 22C20.75 22.4142 20.4142 22.75 20 22.75H18.75V25C18.75 25.4142 18.4142 25.75 18 25.75C17.5858 25.75 17.25 25.4142 17.25 25V22.75H17C16.5858 22.75 16.25 22.4142 16.25 22Z" fill="#909499"/>
</svg>
