<svg width="40" height="40" viewBox="0 0 40 40" fill="none" xmlns="http://www.w3.org/2000/svg">
<rect width="40" height="40" rx="20" fill="#E1E3E6"/>
<path fill-rule="evenodd" clip-rule="evenodd" d="M30 24.0001V20.0001C30 17.1717 30 15.7575 29.1213 14.8788C28.296 14.0535 26.9983 14.0034 24.5 14.0003V29.9999C26.9983 29.9969 28.296 29.9467 29.1213 29.1214C30 28.2428 30 26.8285 30 24.0001ZM27 19C27.5523 19 28 19.4477 28 20C28 20.5523 27.5523 21 27 21C26.4477 21 26 20.5523 26 20C26 19.4477 26.4477 19 27 19ZM27 23C27.5523 23 28 23.4477 28 24C28 24.5523 27.5523 25 27 25C26.4477 25 26 24.5523 26 24C26 23.4477 26.4477 23 27 23Z" fill="#909499"/>
<path d="M23.5694 11.4881L21.4163 14.0001H23V30.0001L16 30.0001C13.1716 30.0001 11.7574 30.0001 10.8787 29.1214C10 28.2428 10 26.8285 10 24.0001V20.0001C10 17.1717 10 15.7575 10.8787 14.8788C11.7574 14.0001 13.1716 14.0001 16 14.0001H18.5837L16.4305 11.4881C16.161 11.1736 16.1974 10.7001 16.5119 10.4306C16.8264 10.161 17.2999 10.1974 17.5694 10.5119L20 13.3476L22.4305 10.5119C22.7001 10.1974 23.1736 10.161 23.4881 10.4306C23.8026 10.7001 23.839 11.1736 23.5694 11.4881Z" fill="#909499"/>
</svg>
